<mxfile host="app.diagrams.net" modified="2024-01-05T16:04:27.483Z" agent="Mozilla/5.0 (Windows NT 10.0; Win64; x64) AppleWebKit/537.36 (KHTML, like Gecko) Chrome/120.0.0.0 Safari/537.36" etag="jFsz9qEk2SZmq7-K_11Y" version="22.1.16" type="device" pages="2">
  <diagram name="Page-1" id="5f0bae14-7c28-e335-631c-24af17079c00">
    <mxGraphModel dx="1257" dy="669" grid="1" gridSize="10" guides="1" tooltips="1" connect="1" arrows="1" fold="1" page="1" pageScale="1" pageWidth="1100" pageHeight="850" background="none" math="0" shadow="0">
      <root>
        <mxCell id="0" />
        <mxCell id="1" parent="0" />
        <mxCell id="39150e848f15840c-1" value="Service PASSIDocs (Rest Api / Front)" style="verticalAlign=top;align=left;spacingTop=8;spacingLeft=2;spacingRight=12;shape=cube;size=10;direction=south;fontStyle=4;html=1;rounded=0;shadow=0;comic=0;labelBackgroundColor=none;strokeWidth=1;fontFamily=Verdana;fontSize=12" parent="1" vertex="1">
          <mxGeometry x="30" y="131" width="410" height="220" as="geometry" />
        </mxCell>
        <mxCell id="39150e848f15840c-2" value="Service PASSIDocs (Rest Api Core)" style="verticalAlign=top;align=left;spacingTop=8;spacingLeft=2;spacingRight=12;shape=cube;size=10;direction=south;fontStyle=4;html=1;rounded=0;shadow=0;comic=0;labelBackgroundColor=none;strokeWidth=1;fontFamily=Verdana;fontSize=12" parent="1" vertex="1">
          <mxGeometry x="630" y="131" width="390" height="220" as="geometry" />
        </mxCell>
        <mxCell id="39150e848f15840c-3" value="IA Natural" style="verticalAlign=top;align=left;spacingTop=8;spacingLeft=2;spacingRight=12;shape=cube;size=10;direction=south;fontStyle=4;html=1;rounded=0;shadow=0;comic=0;labelBackgroundColor=none;strokeWidth=1;fontFamily=Verdana;fontSize=12" parent="1" vertex="1">
          <mxGeometry x="400" y="410" width="260" height="160" as="geometry" />
        </mxCell>
        <mxCell id="39150e848f15840c-4" value="«Interface»&lt;br&gt;&lt;b&gt;Create Samples for &lt;br&gt;Natural IA&lt;/b&gt;" style="html=1;rounded=0;shadow=0;comic=0;labelBackgroundColor=none;strokeWidth=1;fontFamily=Verdana;fontSize=12;align=center;" parent="1" vertex="1">
          <mxGeometry x="50" y="191" width="160" height="60" as="geometry" />
        </mxCell>
        <mxCell id="39150e848f15840c-5" value="Module&lt;br&gt;Sample Files &amp;amp;&lt;br&gt;Load/Training IA Natural" style="shape=component;align=left;spacingLeft=36;rounded=0;shadow=0;comic=0;labelBackgroundColor=none;strokeWidth=1;fontFamily=Verdana;fontSize=12;html=1;" parent="1" vertex="1">
          <mxGeometry x="220" y="196" width="190" height="60" as="geometry" />
        </mxCell>
        <mxCell id="39150e848f15840c-6" value="" style="ellipse;whiteSpace=wrap;html=1;rounded=0;shadow=0;comic=0;labelBackgroundColor=none;strokeWidth=1;fontFamily=Verdana;fontSize=12;align=center;" parent="1" vertex="1">
          <mxGeometry x="270" y="291" width="20" height="20" as="geometry" />
        </mxCell>
        <mxCell id="39150e848f15840c-7" value="Module&lt;br&gt;CRUD Files &amp;amp;&lt;br&gt;Send to Classify&lt;br&gt;(Natural IA)" style="shape=component;align=left;spacingLeft=36;rounded=0;shadow=0;comic=0;labelBackgroundColor=none;strokeWidth=1;fontFamily=Verdana;fontSize=12;html=1;" parent="1" vertex="1">
          <mxGeometry x="650" y="181" width="170" height="75" as="geometry" />
        </mxCell>
        <mxCell id="39150e848f15840c-8" value="«Interface»&lt;br&gt;&lt;b&gt;Rest Api&lt;br&gt;(Endpoints)&lt;/b&gt;" style="html=1;rounded=0;shadow=0;comic=0;labelBackgroundColor=none;strokeWidth=1;fontFamily=Verdana;fontSize=12;align=center;" parent="1" vertex="1">
          <mxGeometry x="880" y="189.75" width="110" height="57.5" as="geometry" />
        </mxCell>
        <mxCell id="39150e848f15840c-9" value="" style="ellipse;whiteSpace=wrap;html=1;rounded=0;shadow=0;comic=0;labelBackgroundColor=none;strokeWidth=1;fontFamily=Verdana;fontSize=12;align=center;" parent="1" vertex="1">
          <mxGeometry x="760" y="291" width="20" height="20" as="geometry" />
        </mxCell>
        <mxCell id="39150e848f15840c-10" value="Module&lt;br&gt;Classify Document /&lt;br&gt;Extract Data /&lt;br&gt;Machine Learning /&lt;br&gt;Save Database" style="shape=component;align=left;spacingLeft=36;rounded=0;shadow=0;comic=0;labelBackgroundColor=none;strokeWidth=1;fontFamily=Verdana;fontSize=12;html=1;" parent="1" vertex="1">
          <mxGeometry x="430" y="460" width="180" height="90" as="geometry" />
        </mxCell>
        <mxCell id="39150e848f15840c-11" style="edgeStyle=none;rounded=0;html=1;dashed=1;labelBackgroundColor=none;startArrow=none;startFill=0;startSize=8;endArrow=open;endFill=0;endSize=16;fontFamily=Verdana;fontSize=12;exitX=0;exitY=0;exitDx=0;exitDy=125;exitPerimeter=0;" parent="1" source="39150e848f15840c-3" target="39150e848f15840c-6" edge="1">
          <mxGeometry relative="1" as="geometry" />
        </mxCell>
        <mxCell id="39150e848f15840c-12" style="edgeStyle=none;rounded=0;html=1;dashed=1;labelBackgroundColor=none;startArrow=none;startFill=0;startSize=8;endArrow=open;endFill=0;endSize=16;fontFamily=Verdana;fontSize=12;exitX=0;exitY=0;exitDx=0;exitDy=125;exitPerimeter=0;" parent="1" source="39150e848f15840c-3" target="39150e848f15840c-9" edge="1">
          <mxGeometry relative="1" as="geometry" />
        </mxCell>
        <mxCell id="39150e848f15840c-13" style="edgeStyle=elbowEdgeStyle;rounded=0;html=1;labelBackgroundColor=none;startArrow=none;startFill=0;startSize=8;endArrow=none;endFill=0;endSize=16;fontFamily=Verdana;fontSize=12;" parent="1" source="39150e848f15840c-9" target="39150e848f15840c-7" edge="1">
          <mxGeometry relative="1" as="geometry" />
        </mxCell>
        <mxCell id="39150e848f15840c-14" style="edgeStyle=elbowEdgeStyle;rounded=0;html=1;labelBackgroundColor=none;startArrow=none;startFill=0;startSize=8;endArrow=none;endFill=0;endSize=16;fontFamily=Verdana;fontSize=12;" parent="1" source="39150e848f15840c-6" target="39150e848f15840c-5" edge="1">
          <mxGeometry relative="1" as="geometry" />
        </mxCell>
        <mxCell id="39150e848f15840c-15" style="edgeStyle=orthogonalEdgeStyle;rounded=0;html=1;labelBackgroundColor=none;startArrow=none;startFill=0;startSize=8;endArrow=open;endFill=0;endSize=16;fontFamily=Verdana;fontSize=12;dashed=1;" parent="1" source="39150e848f15840c-5" target="39150e848f15840c-4" edge="1">
          <mxGeometry relative="1" as="geometry">
            <Array as="points">
              <mxPoint x="260" y="281" />
              <mxPoint x="125" y="281" />
            </Array>
          </mxGeometry>
        </mxCell>
        <mxCell id="39150e848f15840c-16" style="edgeStyle=orthogonalEdgeStyle;rounded=0;html=1;dashed=1;labelBackgroundColor=none;startArrow=none;startFill=0;startSize=8;endArrow=open;endFill=0;endSize=16;fontFamily=Verdana;fontSize=12;" parent="1" source="39150e848f15840c-7" target="39150e848f15840c-8" edge="1">
          <mxGeometry relative="1" as="geometry" />
        </mxCell>
        <mxCell id="39150e848f15840c-17" style="edgeStyle=orthogonalEdgeStyle;rounded=0;html=1;labelBackgroundColor=none;startArrow=none;startFill=0;startSize=8;endArrow=none;endFill=0;endSize=16;fontFamily=Verdana;fontSize=12;entryX=0;entryY=0;entryDx=220;entryDy=195;entryPerimeter=0;" parent="1" source="39150e848f15840c-3" target="39150e848f15840c-2" edge="1">
          <mxGeometry relative="1" as="geometry">
            <Array as="points">
              <mxPoint x="855" y="485" />
            </Array>
          </mxGeometry>
        </mxCell>
        <mxCell id="39150e848f15840c-18" style="edgeStyle=orthogonalEdgeStyle;rounded=0;html=1;labelBackgroundColor=none;startArrow=none;startFill=0;startSize=8;endArrow=none;endFill=0;endSize=16;fontFamily=Verdana;fontSize=12;" parent="1" source="39150e848f15840c-3" target="39150e848f15840c-1" edge="1">
          <mxGeometry relative="1" as="geometry">
            <Array as="points">
              <mxPoint x="195" y="485" />
            </Array>
          </mxGeometry>
        </mxCell>
        <mxCell id="uK-ysWzlkSr8r42TYCn8-1" value="Database&lt;br&gt;reSIO" style="shape=cylinder3;whiteSpace=wrap;html=1;boundedLbl=1;backgroundOutline=1;size=15;" parent="1" vertex="1">
          <mxGeometry x="190" y="550" width="100" height="120" as="geometry" />
        </mxCell>
        <mxCell id="uK-ysWzlkSr8r42TYCn8-2" value="AWS S3 Bucket" style="ellipse;shape=cloud;whiteSpace=wrap;html=1;" parent="1" vertex="1">
          <mxGeometry x="770" y="580" width="150" height="80" as="geometry" />
        </mxCell>
        <mxCell id="uK-ysWzlkSr8r42TYCn8-3" style="edgeStyle=none;rounded=0;html=1;dashed=1;labelBackgroundColor=none;startArrow=none;startFill=0;endArrow=none;endFill=0;fontFamily=Verdana;fontSize=12;exitX=1;exitY=0.5;exitDx=0;exitDy=0;exitPerimeter=0;entryX=0;entryY=0;entryDx=160;entryDy=135;entryPerimeter=0;" parent="1" source="uK-ysWzlkSr8r42TYCn8-1" target="39150e848f15840c-3" edge="1">
          <mxGeometry relative="1" as="geometry">
            <mxPoint x="433" y="782" as="sourcePoint" />
            <mxPoint x="660" y="618" as="targetPoint" />
          </mxGeometry>
        </mxCell>
        <mxCell id="uK-ysWzlkSr8r42TYCn8-4" style="edgeStyle=none;rounded=0;html=1;dashed=1;labelBackgroundColor=none;startArrow=none;startFill=0;startSize=8;endArrow=none;endFill=0;endSize=16;fontFamily=Verdana;fontSize=12;exitX=0;exitY=0;exitDx=160;exitDy=135;exitPerimeter=0;entryX=0.07;entryY=0.4;entryDx=0;entryDy=0;entryPerimeter=0;" parent="1" source="39150e848f15840c-3" target="uK-ysWzlkSr8r42TYCn8-2" edge="1">
          <mxGeometry relative="1" as="geometry">
            <mxPoint x="545" y="680" as="sourcePoint" />
            <mxPoint x="630" y="580" as="targetPoint" />
          </mxGeometry>
        </mxCell>
        <mxCell id="-5ynFVeP9synwYXN9pPn-9" style="edgeStyle=orthogonalEdgeStyle;rounded=0;orthogonalLoop=1;jettySize=auto;html=1;exitX=0;exitY=0;exitDx=75;exitDy=0;exitPerimeter=0;entryX=1;entryY=0.5;entryDx=0;entryDy=0;endArrow=none;endFill=0;" parent="1" source="uK-ysWzlkSr8r42TYCn8-5" target="-5ynFVeP9synwYXN9pPn-5" edge="1">
          <mxGeometry relative="1" as="geometry">
            <mxPoint x="1040" y="725" as="targetPoint" />
            <Array as="points">
              <mxPoint x="1060" y="725" />
              <mxPoint x="1060" y="55" />
            </Array>
          </mxGeometry>
        </mxCell>
        <mxCell id="uK-ysWzlkSr8r42TYCn8-5" value="Hasura (GraphQL &amp;amp; Rest Api)" style="verticalAlign=top;align=left;spacingTop=8;spacingLeft=2;spacingRight=12;shape=cube;size=10;direction=south;fontStyle=4;html=1;rounded=0;shadow=0;comic=0;labelBackgroundColor=none;strokeWidth=1;fontFamily=Verdana;fontSize=12" parent="1" vertex="1">
          <mxGeometry x="370" y="650" width="300" height="160" as="geometry" />
        </mxCell>
        <mxCell id="uK-ysWzlkSr8r42TYCn8-6" value="Module&lt;br&gt;Data storage /&lt;br&gt;Management services &lt;br&gt;- endpoints" style="shape=component;align=left;spacingLeft=36;rounded=0;shadow=0;comic=0;labelBackgroundColor=none;strokeWidth=1;fontFamily=Verdana;fontSize=12;html=1;" parent="1" vertex="1">
          <mxGeometry x="410" y="700" width="220" height="90" as="geometry" />
        </mxCell>
        <mxCell id="uK-ysWzlkSr8r42TYCn8-7" style="edgeStyle=none;rounded=0;html=1;dashed=1;labelBackgroundColor=none;startArrow=none;startFill=0;endArrow=none;endFill=0;fontFamily=Verdana;fontSize=12;exitX=1;exitY=0.5;exitDx=0;exitDy=0;exitPerimeter=0;entryX=0;entryY=0;entryDx=85;entryDy=300;entryPerimeter=0;" parent="1" source="uK-ysWzlkSr8r42TYCn8-1" target="uK-ysWzlkSr8r42TYCn8-5" edge="1">
          <mxGeometry relative="1" as="geometry">
            <mxPoint x="300" y="620" as="sourcePoint" />
            <mxPoint x="535" y="580" as="targetPoint" />
          </mxGeometry>
        </mxCell>
        <mxCell id="uK-ysWzlkSr8r42TYCn8-8" style="edgeStyle=none;rounded=0;html=1;dashed=1;labelBackgroundColor=none;startArrow=none;startFill=0;endArrow=none;endFill=0;fontFamily=Verdana;fontSize=12;exitX=0;exitY=0;exitDx=75;exitDy=0;exitPerimeter=0;entryX=0.13;entryY=0.77;entryDx=0;entryDy=0;entryPerimeter=0;" parent="1" source="uK-ysWzlkSr8r42TYCn8-5" target="uK-ysWzlkSr8r42TYCn8-2" edge="1">
          <mxGeometry relative="1" as="geometry">
            <mxPoint x="740" y="660" as="sourcePoint" />
            <mxPoint x="820" y="785" as="targetPoint" />
          </mxGeometry>
        </mxCell>
        <mxCell id="uK-ysWzlkSr8r42TYCn8-9" value="AER Contigo 2.0" style="verticalAlign=top;align=center;spacingTop=8;spacingLeft=2;spacingRight=12;shape=cube;size=10;direction=south;fontStyle=4;html=1;rounded=0;shadow=0;comic=0;labelBackgroundColor=none;strokeWidth=1;fontFamily=Verdana;fontSize=12;container=0;" parent="1" vertex="1">
          <mxGeometry x="610.0014893617019" y="40" width="179.04255319148933" height="40" as="geometry" />
        </mxCell>
        <mxCell id="5wjFDnEVGrPFGlOTT9Xv-1" value="Tienda de seguros" style="verticalAlign=top;align=center;spacingTop=8;spacingLeft=2;spacingRight=12;shape=cube;size=10;direction=south;fontStyle=4;html=1;rounded=0;shadow=0;comic=0;labelBackgroundColor=none;strokeWidth=1;fontFamily=Verdana;fontSize=12;container=0;" parent="1" vertex="1">
          <mxGeometry x="819.995744680851" y="40" width="184.30851063829786" height="40" as="geometry" />
        </mxCell>
        <mxCell id="-5ynFVeP9synwYXN9pPn-1" value="Portal 360&lt;br&gt;(Web Empresarial)" style="verticalAlign=top;align=center;spacingTop=8;spacingLeft=2;spacingRight=12;shape=cube;size=10;direction=south;fontStyle=4;html=1;rounded=0;shadow=0;comic=0;labelBackgroundColor=none;strokeWidth=1;fontFamily=Verdana;fontSize=12;container=0;" parent="1" vertex="1">
          <mxGeometry x="370.95319148936164" y="30" width="179.04255319148933" height="50" as="geometry" />
        </mxCell>
        <mxCell id="-5ynFVeP9synwYXN9pPn-2" value="WhatsApp" style="verticalAlign=top;align=center;spacingTop=8;spacingLeft=2;spacingRight=12;shape=cube;size=10;direction=south;fontStyle=4;html=1;rounded=0;shadow=0;comic=0;labelBackgroundColor=none;strokeWidth=1;fontFamily=Verdana;fontSize=12;container=0;" parent="1" vertex="1">
          <mxGeometry x="209.99638297872337" y="40" width="105.31914893617021" height="40" as="geometry" />
        </mxCell>
        <mxCell id="-5ynFVeP9synwYXN9pPn-3" value="Email / Manual" style="verticalAlign=top;align=center;spacingTop=8;spacingLeft=2;spacingRight=12;shape=cube;size=10;direction=south;fontStyle=4;html=1;rounded=0;shadow=0;comic=0;labelBackgroundColor=none;strokeWidth=1;fontFamily=Verdana;fontSize=12;container=0;" parent="1" vertex="1">
          <mxGeometry x="49.99574468085106" y="40" width="115.85106382978722" height="40" as="geometry" />
        </mxCell>
        <mxCell id="-5ynFVeP9synwYXN9pPn-5" value="" style="rounded=1;whiteSpace=wrap;html=1;fillColor=none;container=0;movable=1;resizable=1;rotatable=1;deletable=1;editable=1;locked=0;connectable=1;" parent="1" vertex="1">
          <mxGeometry x="30" y="20" width="989.9999999999999" height="70" as="geometry" />
        </mxCell>
        <mxCell id="-5ynFVeP9synwYXN9pPn-8" style="edgeStyle=none;rounded=0;html=1;dashed=1;labelBackgroundColor=none;startArrow=none;startFill=0;startSize=8;endArrow=none;endFill=0;endSize=16;fontFamily=Verdana;fontSize=12;exitX=0.5;exitY=1;exitDx=0;exitDy=0;entryX=0;entryY=0;entryDx=0;entryDy=190;entryPerimeter=0;" parent="1" source="-5ynFVeP9synwYXN9pPn-5" target="39150e848f15840c-2" edge="1">
          <mxGeometry relative="1" as="geometry">
            <mxPoint x="535" y="580" as="sourcePoint" />
            <mxPoint x="791" y="622" as="targetPoint" />
          </mxGeometry>
        </mxCell>
        <mxCell id="-5ynFVeP9synwYXN9pPn-10" value="Logs" style="verticalAlign=top;align=left;spacingTop=8;spacingLeft=2;spacingRight=12;shape=cube;size=10;direction=south;fontStyle=4;html=1;rounded=0;shadow=0;comic=0;labelBackgroundColor=none;strokeWidth=1;fontFamily=Verdana;fontSize=12" parent="1" vertex="1">
          <mxGeometry x="870" y="470" width="160" height="90" as="geometry" />
        </mxCell>
        <mxCell id="-5ynFVeP9synwYXN9pPn-11" value="Module&lt;br&gt;Logs local" style="shape=component;align=left;spacingLeft=36;rounded=0;shadow=0;comic=0;labelBackgroundColor=none;strokeWidth=1;fontFamily=Verdana;fontSize=12;html=1;" parent="1" vertex="1">
          <mxGeometry x="885" y="510" width="120" height="40" as="geometry" />
        </mxCell>
        <mxCell id="-5ynFVeP9synwYXN9pPn-12" style="edgeStyle=orthogonalEdgeStyle;rounded=0;orthogonalLoop=1;jettySize=auto;html=1;exitX=0;exitY=0;exitDx=50;exitDy=160;exitPerimeter=0;entryX=0.688;entryY=-0.004;entryDx=0;entryDy=0;entryPerimeter=0;endArrow=none;endFill=0;" parent="1" source="-5ynFVeP9synwYXN9pPn-10" target="39150e848f15840c-3" edge="1">
          <mxGeometry relative="1" as="geometry" />
        </mxCell>
        <mxCell id="-5ynFVeP9synwYXN9pPn-13" style="edgeStyle=orthogonalEdgeStyle;rounded=0;orthogonalLoop=1;jettySize=auto;html=1;exitX=0;exitY=0;exitDx=0;exitDy=75;exitPerimeter=0;entryX=0.995;entryY=0.167;entryDx=0;entryDy=0;entryPerimeter=0;endArrow=none;endFill=0;" parent="1" source="-5ynFVeP9synwYXN9pPn-10" target="39150e848f15840c-2" edge="1">
          <mxGeometry relative="1" as="geometry" />
        </mxCell>
      </root>
    </mxGraphModel>
  </diagram>
  <diagram id="FvZ0lTboPSdtHVrsh6Sk" name="Página-2">
    <mxGraphModel dx="1100" dy="585" grid="1" gridSize="10" guides="1" tooltips="1" connect="1" arrows="1" fold="1" page="1" pageScale="1" pageWidth="827" pageHeight="1169" math="0" shadow="0">
      <root>
        <mxCell id="0" />
        <mxCell id="1" parent="0" />
      </root>
    </mxGraphModel>
  </diagram>
</mxfile>
